<?xml version="1.0" encoding="UTF-8"?>
<svg width="1306px" height="1707px" viewBox="0 0 1306 1707" version="1.1" xmlns="http://www.w3.org/2000/svg" xmlns:xlink="http://www.w3.org/1999/xlink">
    <!-- Generator: Sketch 51.1 (57501) - http://www.bohemiancoding.com/sketch -->
    <title>hexagons</title>
    <desc>Created with Sketch.</desc>
    <defs>
        <filter x="-1.5%" y="-1.2%" width="103.0%" height="103.2%" filterUnits="objectBoundingBox" id="filter-1">
            <feOffset dx="0" dy="2" in="SourceAlpha" result="shadowOffsetOuter1"></feOffset>
            <feGaussianBlur stdDeviation="2" in="shadowOffsetOuter1" result="shadowBlurOuter1"></feGaussianBlur>
            <feColorMatrix values="0 0 0 0 0   0 0 0 0 0   0 0 0 0 0  0 0 0 0.19 0" type="matrix" in="shadowBlurOuter1" result="shadowMatrixOuter1"></feColorMatrix>
            <feMerge>
                <feMergeNode in="shadowMatrixOuter1"></feMergeNode>
                <feMergeNode in="SourceGraphic"></feMergeNode>
            </feMerge>
        </filter>
        <path d="M110.765024,0.260458679 L299.106819,0.260458679 C304.446564,0.260458679 309.383724,3.0991226 312.070185,7.7138607 L407.979648,172.464849 C410.703374,177.143601 410.694574,182.927018 407.956622,187.59746 L312.077502,351.149564 C309.385252,355.742046 304.460609,358.563551 299.137162,358.563551 L110.734881,358.563551 C105.350319,358.563551 100.378863,355.677444 97.7088626,351.001484 L4.31994875,187.449897 C1.69594246,182.854486 1.68747594,177.216457 4.29766876,172.613186 L97.7167255,7.86168117 C100.380616,3.16371064 105.364354,0.260458679 110.765024,0.260458679 Z" id="path-2"></path>
        <filter x="-2.7%" y="-2.5%" width="105.3%" height="106.1%" filterUnits="objectBoundingBox" id="filter-4">
            <feOffset dx="0" dy="2" in="SourceAlpha" result="shadowOffsetOuter1"></feOffset>
            <feGaussianBlur stdDeviation="2" in="shadowOffsetOuter1" result="shadowBlurOuter1"></feGaussianBlur>
            <feColorMatrix values="0 0 0 0 0   0 0 0 0 0   0 0 0 0 0  0 0 0 0.19 0" type="matrix" in="shadowBlurOuter1" result="shadowMatrixOuter1"></feColorMatrix>
            <feMerge>
                <feMergeNode in="shadowMatrixOuter1"></feMergeNode>
                <feMergeNode in="SourceGraphic"></feMergeNode>
            </feMerge>
        </filter>
        <linearGradient x1="68.1884411%" y1="17.4868311%" x2="27.8226935%" y2="89.7551419%" id="linearGradient-5">
            <stop stop-color="#41873F" offset="0%"></stop>
            <stop stop-color="#418B3D" offset="32.88%"></stop>
            <stop stop-color="#419637" offset="63.52%"></stop>
            <stop stop-color="#3FA92D" offset="93.19%"></stop>
            <stop stop-color="#3FAE2A" offset="100%"></stop>
        </linearGradient>
        <path d="M36.3212149,0.536700676 C35.1612559,-0.120693454 33.7838047,-0.120693454 32.6238457,0.536700676 L2.10242561,18.2863422 C0.942466653,18.9437364 0.289989739,20.1854808 0.289989739,21.5002691 L0.289989739,57.0725959 C0.289989739,58.3873842 1.01496409,59.6291286 2.10242561,60.2865228 L32.6238457,78.0361646 C33.7838047,78.6935584 35.1612559,78.6935584 36.3212149,78.0361646 L66.8426347,60.2865228 C68.0025937,59.6291286 68.6550709,58.3873842 68.6550709,57.0725959 L68.6550709,21.5002691 C68.6550709,20.1854808 67.9300967,18.9437364 66.8426347,18.2863422 L36.3212149,0.536700676 Z" id="path-6"></path>
        <linearGradient x1="43.2765472%" y1="55.168777%" x2="159.245277%" y2="-18.3061379%" id="linearGradient-8">
            <stop stop-color="#41873F" offset="13.76%"></stop>
            <stop stop-color="#54A044" offset="40.32%"></stop>
            <stop stop-color="#66B848" offset="71.36%"></stop>
            <stop stop-color="#6CC04A" offset="90.81%"></stop>
        </linearGradient>
        <path d="M36.3212149,0.536700676 C35.1612559,-0.120693454 33.7838047,-0.120693454 32.6238457,0.536700676 L2.10242561,18.2863422 C0.942466653,18.9437364 0.289989739,20.1854808 0.289989739,21.5002691 L0.289989739,57.0725959 C0.289989739,58.3873842 1.01496409,59.6291286 2.10242561,60.2865228 L32.6238457,78.0361646 C33.7838047,78.6935584 35.1612559,78.6935584 36.3212149,78.0361646 L66.8426347,60.2865228 C68.0025937,59.6291286 68.6550709,58.3873842 68.6550709,57.0725959 L68.6550709,21.5002691 C68.6550709,20.1854808 67.9300967,18.9437364 66.8426347,18.2863422 L36.3212149,0.536700676 Z" id="path-9"></path>
        <linearGradient x1="-4413.77%" y1="13.43%" x2="5327.93%" y2="13.43%" id="linearGradient-11">
            <stop stop-color="#6CC04A" offset="9.191646%"></stop>
            <stop stop-color="#66B848" offset="28.64%"></stop>
            <stop stop-color="#54A044" offset="59.68%"></stop>
            <stop stop-color="#41873F" offset="86.24%"></stop>
        </linearGradient>
        <linearGradient x1="-4.38880435%" y1="49.9972065%" x2="101.499239%" y2="49.9972065%" id="linearGradient-12">
            <stop stop-color="#6CC04A" offset="9.191646%"></stop>
            <stop stop-color="#66B848" offset="28.64%"></stop>
            <stop stop-color="#54A044" offset="59.68%"></stop>
            <stop stop-color="#41873F" offset="86.24%"></stop>
        </linearGradient>
        <linearGradient x1="-9713.77%" y1="36.21%" x2="27.93%" y2="36.21%" id="linearGradient-13">
            <stop stop-color="#6CC04A" offset="9.191646%"></stop>
            <stop stop-color="#66B848" offset="28.64%"></stop>
            <stop stop-color="#54A044" offset="59.68%"></stop>
            <stop stop-color="#41873F" offset="86.24%"></stop>
        </linearGradient>
        <linearGradient x1="-103.860714%" y1="50.2754209%" x2="100.796849%" y2="50.2754209%" id="linearGradient-14">
            <stop stop-color="#6CC04A" offset="9.191646%"></stop>
            <stop stop-color="#66B848" offset="28.64%"></stop>
            <stop stop-color="#54A044" offset="59.68%"></stop>
            <stop stop-color="#41873F" offset="86.24%"></stop>
        </linearGradient>
        <linearGradient x1="130.613025%" y1="-211.06936%" x2="4.39327731%" y2="201.605387%" id="linearGradient-15">
            <stop stop-color="#41873F" offset="0%"></stop>
            <stop stop-color="#418B3D" offset="32.88%"></stop>
            <stop stop-color="#419637" offset="63.52%"></stop>
            <stop stop-color="#3FA92D" offset="93.19%"></stop>
            <stop stop-color="#3FAE2A" offset="100%"></stop>
        </linearGradient>
        <filter x="-2.7%" y="-2.5%" width="105.3%" height="106.1%" filterUnits="objectBoundingBox" id="filter-16">
            <feOffset dx="0" dy="2" in="SourceAlpha" result="shadowOffsetOuter1"></feOffset>
            <feGaussianBlur stdDeviation="2" in="shadowOffsetOuter1" result="shadowBlurOuter1"></feGaussianBlur>
            <feColorMatrix values="0 0 0 0 0   0 0 0 0 0   0 0 0 0 0  0 0 0 0.19 0" type="matrix" in="shadowBlurOuter1" result="shadowMatrixOuter1"></feColorMatrix>
            <feMerge>
                <feMergeNode in="shadowMatrixOuter1"></feMergeNode>
                <feMergeNode in="SourceGraphic"></feMergeNode>
            </feMerge>
        </filter>
        <filter x="-2.7%" y="-2.5%" width="105.3%" height="106.1%" filterUnits="objectBoundingBox" id="filter-17">
            <feOffset dx="0" dy="2" in="SourceAlpha" result="shadowOffsetOuter1"></feOffset>
            <feGaussianBlur stdDeviation="2" in="shadowOffsetOuter1" result="shadowBlurOuter1"></feGaussianBlur>
            <feColorMatrix values="0 0 0 0 0   0 0 0 0 0   0 0 0 0 0  0 0 0 0.19 0" type="matrix" in="shadowBlurOuter1" result="shadowMatrixOuter1"></feColorMatrix>
            <feMerge>
                <feMergeNode in="shadowMatrixOuter1"></feMergeNode>
                <feMergeNode in="SourceGraphic"></feMergeNode>
            </feMerge>
        </filter>
        <filter x="-2.7%" y="-2.5%" width="105.3%" height="106.1%" filterUnits="objectBoundingBox" id="filter-18">
            <feOffset dx="0" dy="2" in="SourceAlpha" result="shadowOffsetOuter1"></feOffset>
            <feGaussianBlur stdDeviation="2" in="shadowOffsetOuter1" result="shadowBlurOuter1"></feGaussianBlur>
            <feColorMatrix values="0 0 0 0 0   0 0 0 0 0   0 0 0 0 0  0 0 0 0.19 0" type="matrix" in="shadowBlurOuter1" result="shadowMatrixOuter1"></feColorMatrix>
            <feMerge>
                <feMergeNode in="shadowMatrixOuter1"></feMergeNode>
                <feMergeNode in="SourceGraphic"></feMergeNode>
            </feMerge>
        </filter>
        <filter x="-2.7%" y="-2.5%" width="105.3%" height="106.1%" filterUnits="objectBoundingBox" id="filter-19">
            <feOffset dx="0" dy="2" in="SourceAlpha" result="shadowOffsetOuter1"></feOffset>
            <feGaussianBlur stdDeviation="2" in="shadowOffsetOuter1" result="shadowBlurOuter1"></feGaussianBlur>
            <feColorMatrix values="0 0 0 0 0   0 0 0 0 0   0 0 0 0 0  0 0 0 0.19 0" type="matrix" in="shadowBlurOuter1" result="shadowMatrixOuter1"></feColorMatrix>
            <feMerge>
                <feMergeNode in="shadowMatrixOuter1"></feMergeNode>
                <feMergeNode in="SourceGraphic"></feMergeNode>
            </feMerge>
        </filter>
        <filter x="-1.7%" y="-1.4%" width="103.4%" height="103.9%" filterUnits="objectBoundingBox" id="filter-20">
            <feOffset dx="0" dy="2" in="SourceAlpha" result="shadowOffsetOuter1"></feOffset>
            <feGaussianBlur stdDeviation="2" in="shadowOffsetOuter1" result="shadowBlurOuter1"></feGaussianBlur>
            <feColorMatrix values="0 0 0 0 0   0 0 0 0 0   0 0 0 0 0  0 0 0 0.19 0" type="matrix" in="shadowBlurOuter1" result="shadowMatrixOuter1"></feColorMatrix>
            <feMerge>
                <feMergeNode in="shadowMatrixOuter1"></feMergeNode>
                <feMergeNode in="SourceGraphic"></feMergeNode>
            </feMerge>
        </filter>
        <path d="M110.602547,0 L298.795364,3.55271368e-15 C304.134837,2.57186839e-15 309.071788,2.83837697 311.758346,7.45274338 L407.590475,172.051654 C410.314714,176.73074 410.305912,182.51481 407.567446,187.185583 L311.76566,350.586673 C309.073315,355.178782 304.148882,358 298.825707,358 L110.572403,358 C105.188111,358 100.216861,355.11418 97.5467592,350.438588 L4.23317228,187.038015 C1.60866823,182.44227 1.60020025,176.803603 4.210889,172.199995 L97.5546198,7.60056827 C100.218613,2.90296528 105.202146,1.46703418e-14 110.602547,8.8817842e-15 Z" id="path-21"></path>
        <path d="M1098.60255,573 L1286.79536,573 C1292.13484,573 1297.07179,575.838377 1299.75835,580.452743 L1395.59047,745.051654 C1398.31471,749.73074 1398.30591,755.51481 1395.56745,760.185583 L1299.76566,923.586673 C1297.07331,928.178782 1292.14888,931 1286.82571,931 L1098.5724,931 C1093.18811,931 1088.21686,928.11418 1085.54676,923.438588 L992.233172,760.038015 C989.608668,755.44227 989.6002,749.803603 992.210889,745.199995 L1085.55462,580.600568 C1088.21861,575.902965 1093.20215,573 1098.60255,573 Z" id="path-23"></path>
        <filter x="-2.7%" y="-2.5%" width="105.4%" height="106.1%" filterUnits="objectBoundingBox" id="filter-24">
            <feMorphology radius="4" operator="dilate" in="SourceAlpha" result="shadowSpreadOuter1"></feMorphology>
            <feOffset dx="0" dy="2" in="shadowSpreadOuter1" result="shadowOffsetOuter1"></feOffset>
            <feGaussianBlur stdDeviation="2" in="shadowOffsetOuter1" result="shadowBlurOuter1"></feGaussianBlur>
            <feComposite in="shadowBlurOuter1" in2="SourceAlpha" operator="out" result="shadowBlurOuter1"></feComposite>
            <feColorMatrix values="0 0 0 0 0   0 0 0 0 0   0 0 0 0 0  0 0 0 0.19 0" type="matrix" in="shadowBlurOuter1"></feColorMatrix>
        </filter>
        <path d="M770.602547,2 L958.795364,2 C964.134837,2 969.071788,4.83837697 971.758346,9.45274338 L1067.59047,174.051654 C1070.31471,178.73074 1070.30591,184.51481 1067.56745,189.185583 L971.76566,352.586673 C969.073315,357.178782 964.148882,360 958.825707,360 L770.572403,360 C765.188111,360 760.216861,357.11418 757.546759,352.438588 L664.233172,189.038015 C661.608668,184.44227 661.6002,178.803603 664.210889,174.199995 L757.55462,9.60056827 C760.218613,4.90296528 765.202146,2 770.602547,2 Z" id="path-25"></path>
        <filter x="-2.7%" y="-2.5%" width="105.3%" height="106.1%" filterUnits="objectBoundingBox" id="filter-26">
            <feMorphology radius="4" operator="dilate" in="SourceAlpha" result="shadowSpreadOuter1"></feMorphology>
            <feOffset dx="0" dy="2" in="shadowSpreadOuter1" result="shadowOffsetOuter1"></feOffset>
            <feGaussianBlur stdDeviation="2" in="shadowOffsetOuter1" result="shadowBlurOuter1"></feGaussianBlur>
            <feComposite in="shadowBlurOuter1" in2="SourceAlpha" operator="out" result="shadowBlurOuter1"></feComposite>
            <feColorMatrix values="0 0 0 0 0   0 0 0 0 0   0 0 0 0 0  0 0 0 0.19 0" type="matrix" in="shadowBlurOuter1"></feColorMatrix>
        </filter>
        <filter x="-2.7%" y="-2.5%" width="105.3%" height="106.1%" filterUnits="objectBoundingBox" id="filter-27">
            <feOffset dx="0" dy="2" in="SourceAlpha" result="shadowOffsetOuter1"></feOffset>
            <feGaussianBlur stdDeviation="2" in="shadowOffsetOuter1" result="shadowBlurOuter1"></feGaussianBlur>
            <feColorMatrix values="0 0 0 0 0   0 0 0 0 0   0 0 0 0 0  0 0 0 0.19 0" type="matrix" in="shadowBlurOuter1" result="shadowMatrixOuter1"></feColorMatrix>
            <feMerge>
                <feMergeNode in="shadowMatrixOuter1"></feMergeNode>
                <feMergeNode in="SourceGraphic"></feMergeNode>
            </feMerge>
        </filter>
        <path d="M108.602547,1.70084774e-15 L305.419239,0 L305.419239,358 L108.572403,358 C103.188111,358 98.2168613,355.11418 95.5467592,350.438588 L2.23317228,187.038015 C-0.391331774,182.44227 -0.399799751,176.803603 2.210889,172.199995 L95.5546198,7.60056827 C98.2186132,2.90296528 103.202146,9.92037632e-16 108.602547,0 Z" id="path-28"></path>
    </defs>
    <g id="Page-1" stroke="none" stroke-width="1" fill="none" fill-rule="evenodd">
        <g id="Desktop" transform="translate(-1025.000000, -237.000000)">
            <g id="hexagons" transform="translate(705.000000, 241.000000)">
                <g id="JavaScript" filter="url(#filter-1)" transform="translate(606.000000, 697.000000)">
                    <g id="Shape-+-Shape-+-Shape-Mask" transform="translate(49.000000, 65.000000)">
                        <mask id="mask-3" fill="white">
                            <use xlink:href="#path-2"></use>
                        </mask>
                        <g id="Mask"></g>
                        <polygon id="Shape" fill="#F7DF1E" fill-rule="nonzero" mask="url(#mask-3)" points="-28 -65 412 -65 412 369 -28 369"></polygon>
                        <path d="M88.0006997,296.84767 L121.739549,276.820076 C128.248407,288.139782 134.169431,297.717362 148.371911,297.717362 C161.985857,297.717362 170.568927,292.493726 170.568927,272.175778 L170.568927,134 L212,134 L212,272.750309 C212,314.84141 186.84632,334 150.148008,334 C117.00469,334 97.7657357,317.162873 88,296.844238" id="Shape" fill="#000000" fill-rule="nonzero" mask="url(#mask-3)"></path>
                        <path d="M234,293.351522 L267.70607,274.129201 C276.579034,288.401831 288.111087,298.88592 308.512608,298.88592 C325.664905,298.88592 336.602631,290.439007 336.602631,278.788949 C336.602631,264.809016 325.367042,259.857258 306.44225,251.705111 L296.096054,247.333239 C266.229342,234.811974 246.417254,219.084809 246.417254,185.881866 C246.417254,155.300806 270.072194,132 307.035179,132 C333.352009,132 352.276101,141.029554 365.876415,164.620991 L333.645676,185.007217 C326.548705,172.484574 318.863,167.534195 307.035879,167.534195 C294.912294,167.534195 287.223791,175.106456 287.223791,185.007217 C287.223791,197.239915 294.912294,202.192361 312.651926,209.765312 L323.000219,214.13374 C358.187914,228.988322 378,244.131471 378,278.206307 C378,314.905783 348.726917,335 309.400604,335 C270.960889,335 246.122188,316.943648 234.0007,293.351522" id="Shape" fill="#000000" fill-rule="nonzero" mask="url(#mask-3)"></path>
                    </g>
                    <g id="javascript"></g>
                </g>
                <g id="Node" filter="url(#filter-4)" transform="translate(658.000000, 381.000000)">
                    <path d="M110.602547,0 L298.795364,3.55271368e-15 C304.134837,2.57186839e-15 309.071788,2.83837697 311.758346,7.45274338 L407.590475,172.051654 C410.314714,176.73074 410.305912,182.51481 407.567446,187.185583 L311.76566,350.586673 C309.073315,355.178782 304.148882,358 298.825707,358 L110.572403,358 C105.188111,358 100.216861,355.11418 97.5467592,350.438588 L4.23317228,187.038015 C1.60866823,182.44227 1.60020025,176.803603 4.210889,172.199995 L97.5546198,7.60056827 C100.218613,2.90296528 105.202146,1.46703418e-14 110.602547,8.8817842e-15 Z" id="Mask" stroke="#FFFFFF" stroke-width="8" fill="#FFFFFF"></path>
                    <g id="nodejs" transform="translate(44.000000, 80.000000)">
                        <path d="M160,199 C158.913043,199 157.89855,198.706017 156.956521,198.191548 L147.318841,192.385393 C145.869565,191.576941 146.594203,191.282958 147.028985,191.135967 C148.985507,190.474506 149.347826,190.327514 151.376812,189.151584 C151.594203,189.004593 151.884058,189.078089 152.101449,189.22508 L159.492754,193.708314 C159.782609,193.855305 160.144928,193.855305 160.362319,193.708314 L189.275362,176.730822 C189.565218,176.583831 189.710145,176.289848 189.710145,175.92237 L189.710145,142.040882 C189.710145,141.673403 189.565218,141.379421 189.275362,141.23243 L160.362319,124.328434 C160.072464,124.181442 159.710145,124.181442 159.492754,124.328434 L130.57971,141.23243 C130.289855,141.379421 130.144928,141.746899 130.144928,142.040882 L130.144928,175.92237 C130.144928,176.216352 130.289855,176.583831 130.57971,176.730822 L138.478261,181.361047 C142.753623,183.565916 145.434783,180.993569 145.434783,178.421222 L145.434783,144.980707 C145.434783,144.539734 145.797101,144.09876 146.304348,144.09876 L150,144.09876 C150.434783,144.09876 150.869565,144.466238 150.869565,144.980707 L150.869565,178.421222 C150.869565,184.227377 147.753623,187.608176 142.31884,187.608176 C140.652174,187.608176 139.347826,187.608176 135.652174,185.770785 L128.043478,181.361047 C126.15942,180.258612 125,178.200735 125,175.995865 L125,142.114377 C125,139.909509 126.15942,137.85163 128.043478,136.749196 L156.956521,119.771704 C158.768116,118.742765 161.231884,118.742765 163.043479,119.771704 L191.956522,136.749196 C193.84058,137.85163 195,139.909509 195,142.114377 L195,175.995865 C195,178.200735 193.84058,180.258612 191.956522,181.361047 L163.043479,198.338539 C162.101449,198.779513 161.014493,199 160,199 Z M168.913044,175.701883 C156.231884,175.701883 153.623188,169.822232 153.623188,164.824529 C153.623188,164.383555 153.985507,163.942582 154.492753,163.942582 L158.26087,163.942582 C158.695652,163.942582 159.057971,164.236564 159.057971,164.677538 C159.637681,168.572807 161.304348,170.483693 168.985507,170.483693 C175.072464,170.483693 177.68116,169.087276 177.68116,165.779972 C177.68116,163.869086 176.956522,162.472669 167.463768,161.517225 C159.565218,160.708773 154.637681,158.944878 154.637681,152.550758 C154.637681,146.597611 159.565218,143.069821 167.826087,143.069821 C177.101449,143.069821 181.666667,146.303629 182.246377,153.35921 C182.246377,153.579697 182.173913,153.800184 182.028986,154.020671 C181.884058,154.167662 181.666667,154.314653 181.449275,154.314653 L177.68116,154.314653 C177.318841,154.314653 176.956522,154.020671 176.884058,153.653193 C176.014493,149.610933 173.768116,148.288011 167.826087,148.288011 C161.15942,148.288011 160.362319,150.639871 160.362319,152.403766 C160.362319,154.53514 161.304348,155.196601 170.289855,156.372531 C179.202899,157.548461 183.405797,159.238861 183.405797,165.559485 C183.333333,172.027101 178.115942,175.701883 168.913044,175.701883 Z" id="Shape" fill="#539E43" fill-rule="nonzero"></path>
                        <path d="M68.9274446,66.4435626 C68.9274446,65.135142 68.2018926,63.8994116 67.0410093,63.245201 L36.2776024,45.5088303 C35.769716,45.2180702 35.1892743,45.07269 34.6088326,45 L34.3186119,45 C33.7381702,45 33.1577286,45.2180702 32.6498422,45.5088303 L1.88643532,63.245201 C0.725552048,63.8994116 0,65.135142 0,66.4435626 L0.0725552043,114.128232 C0.0725552043,114.782442 0.435331228,115.436653 1.01577287,115.727412 C1.59621451,116.090863 2.32176656,116.090863 2.82965299,115.727412 L21.1135646,105.260046 C22.2744479,104.605836 22.9999999,103.370105 22.9999999,102.061685 L22.9999999,79.7458409 C22.9999999,78.4374202 23.7255519,77.2016892 24.8864353,76.5474792 L32.6498422,72.0406961 C33.2302838,71.677246 33.8832806,71.531866 34.5362775,71.531866 C35.1892743,71.531866 35.8422712,71.677246 36.3501576,72.0406961 L44.1135645,76.5474792 C45.2744478,77.2016892 45.9999998,78.4374202 45.9999998,79.7458409 L45.9999998,102.061685 C45.9999998,103.370105 46.7255519,104.605836 47.8864351,105.260046 L66.1703465,115.727412 C66.7507882,116.090863 67.4763407,116.090863 68.0567824,115.727412 C68.6372234,115.436653 69,114.782442 69,114.128232 L68.9274446,66.4435626 Z" id="Shape" fill="#333333" fill-rule="nonzero"></path>
                        <path d="M217.757098,0.220102715 C217.176656,-0.0733675716 216.451104,-0.0733675716 215.943218,0.220102715 C215.362776,0.586940573 215,1.17388114 215,1.83418929 L215,49.5231108 C215,49.9633162 214.782335,50.4035217 214.347003,50.696992 C213.911672,50.9170947 213.476341,50.9170947 213.04101,50.696992 L205.350158,46.2215701 C204.189275,45.561262 202.810725,45.561262 201.649842,46.2215701 L170.886435,64.196625 C169.725552,64.8569334 169,66.1041818 169,67.424798 L169,103.301541 C169,104.622157 169.725552,105.869406 170.886435,106.529714 L201.649842,124.504769 C202.810725,125.165077 204.189275,125.165077 205.350158,124.504769 L236.113565,106.529714 C237.274448,105.869406 238,104.622157 238,103.301541 L238,13.866471 C238,12.4724871 237.274448,11.2252385 236.113565,10.5649303 L217.757098,0.220102715 Z M214.927445,91.4893617 C214.927445,91.8561995 214.782335,92.1496701 214.492114,92.2964051 L203.971609,98.459281 C203.681388,98.606016 203.318612,98.606016 203.028391,98.459281 L192.507886,92.2964051 C192.217666,92.1496701 192.072555,91.7828323 192.072555,91.4893617 L192.072555,79.1636099 C192.072555,78.7967721 192.217666,78.5033015 192.507886,78.3565665 L203.028391,72.1936905 C203.318612,72.0469556 203.681388,72.0469556 203.971609,72.1936905 L214.492114,78.3565665 C214.782335,78.5033015 214.927445,78.8701392 214.927445,79.1636099 L214.927445,91.4893617 Z" id="Shape" fill="#333333" fill-rule="nonzero"></path>
                        <g id="Group" transform="translate(255.000000, 45.000000)" fill-rule="nonzero">
                            <path d="M66.8678392,34.1223262 C68.0277982,33.461894 68.6802747,32.2144111 68.6802747,30.8935469 L68.6802747,22.1611667 C68.6802747,20.8403024 67.9553005,19.5928195 66.8678392,18.9323874 L36.346419,1.02733885 C35.1864601,0.366906733 33.8090088,0.366906733 32.6490498,1.02733885 L1.91013749,19.0057688 C0.750178532,19.6662009 0.0252041883,20.9136837 0.0252041883,22.234548 L0.0252041883,58.1180264 C0.0252041883,59.4388907 0.750178532,60.6863736 1.91013749,61.3468057 L32.4315576,78.9583289 C33.5915165,79.6187613 34.9689678,79.6187613 36.0564293,78.9583289 L54.5432752,68.5381778 C55.1232547,68.2446521 55.4857419,67.5842203 55.4857419,66.9237879 C55.4857419,66.2633562 55.1232547,65.6029238 54.5432752,65.3093981 L23.659368,47.3309685 C23.0793885,46.9640618 22.7169013,46.377011 22.7169013,45.7165789 L22.7169013,34.4892329 C22.7169013,33.8288008 23.0793885,33.1683686 23.659368,32.8748432 L33.3015268,27.2978609 C33.8815063,26.9309542 34.6064806,26.9309542 35.1864601,27.2978609 L44.8286189,32.8748432 C45.4085984,33.24175 45.7710856,33.8288008 45.7710856,34.4892329 L45.7710856,43.2949945 C45.7710856,43.9554265 46.1335728,44.6158587 46.7135523,44.9093841 C47.2935317,45.2762908 48.018506,45.2762908 48.5984855,44.9093841 L66.8678392,34.1223262 Z" id="Shape" fill="#333333"></path>
                            <path d="M34.0265011,32.4345552 C34.2439934,32.2877924 34.5339832,32.2877924 34.7514755,32.4345552 L40.6237677,35.8834785 C40.84126,36.0302411 40.9862549,36.2503852 40.9862549,36.5439105 L40.9862549,43.4417571 C40.9862549,43.7352825 40.84126,43.9554265 40.6237677,44.1021893 L34.7514755,47.5511126 C34.5339832,47.6978752 34.2439934,47.6978752 34.0265011,47.5511126 L28.1542089,44.1021893 C27.9367166,43.9554265 27.7917217,43.7352825 27.7917217,43.4417571 L27.7917217,36.5439105 C27.7917217,36.2503852 27.9367166,36.0302411 28.1542089,35.8834785 L34.0265011,32.4345552 Z" id="Shape" fill="#539E43"></path>
                        </g>
                        <g id="Group" transform="translate(85.000000, 46.000000)">
                            <g id="path-2-link" fill="url(#linearGradient-5)" fill-rule="nonzero">
                                <path d="M36.3212149,0.536700676 C35.1612559,-0.120693454 33.7838047,-0.120693454 32.6238457,0.536700676 L2.10242561,18.2863422 C0.942466653,18.9437364 0.289989739,20.1854808 0.289989739,21.5002691 L0.289989739,57.0725959 C0.289989739,58.3873842 1.01496409,59.6291286 2.10242561,60.2865228 L32.6238457,78.0361646 C33.7838047,78.6935584 35.1612559,78.6935584 36.3212149,78.0361646 L66.8426347,60.2865228 C68.0025937,59.6291286 68.6550709,58.3873842 68.6550709,57.0725959 L68.6550709,21.5002691 C68.6550709,20.1854808 67.9300967,18.9437364 66.8426347,18.2863422 L36.3212149,0.536700676 Z" id="path-2"></path>
                            </g>
                            <g id="Clipped">
                                <mask id="mask-7" fill="white">
                                    <use xlink:href="#path-6"></use>
                                </mask>
                                <g id="path-2"></g>
                                <g id="Group" mask="url(#mask-7)">
                                    <path d="M32.5513482,0.536700676 L1.95743074,18.2863422 C0.797471784,18.9437364 0,20.1854808 0,21.5002691 L0,57.0725959 C0,57.9491215 0.362487174,58.7526032 0.942466653,59.4099973 L35.3062508,0.0984379247 C34.4362816,-0.0476496615 33.4213175,0.0253941329 32.5513482,0.536700676 Z" id="Shape"></path>
                                    <path d="M35.5237431,78.4013835 C35.8137328,78.3283395 36.1037225,78.182252 36.3937123,78.0361646 L66.9876301,60.2865228 C68.1475891,59.6291286 68.8725633,58.3873842 68.8725633,57.0725959 L68.8725633,21.5002691 C68.8725633,20.5506998 68.4375785,19.6011305 67.7851013,18.9437364 L35.5237431,78.4013835 Z" id="Shape"></path>
                                    <path d="M66.9151324,18.2863422 L36.2487174,0.536700676 C35.9587277,0.390613092 35.5962405,0.244525508 35.3062508,0.171481717 L0.942466653,59.4830411 C1.23245639,59.84826 1.59494357,60.1404352 1.95743074,60.3595666 L32.6238457,78.109208 C33.4938149,78.620515 34.508779,78.7666024 35.4512457,78.4744269 L67.7126043,19.0167801 C67.4951119,18.724605 67.2051218,18.5054736 66.9151324,18.2863422 Z" id="Shape" fill="url(#linearGradient-8)" fill-rule="nonzero"></path>
                                </g>
                            </g>
                            <g id="Clipped">
                                <mask id="mask-10" fill="white">
                                    <use xlink:href="#path-9"></use>
                                </mask>
                                <g id="path-2"></g>
                                <g id="Group" mask="url(#mask-10)">
                                    <g transform="translate(0.000000, -6.475504)" id="Shape">
                                        <path d="M68.8725633,63.5480993 L68.8725633,27.9757725 C68.8725633,26.6609842 68.0750914,25.4192397 66.9151324,24.7618456 L36.2487174,7.01220407 C35.8862303,6.79307267 35.5237431,6.64698511 35.0887585,6.57394133 L68.6550709,64.3515811 C68.8000656,64.1324496 68.8725633,63.8402748 68.8725633,63.5480993 Z" fill="none"></path>
                                        <path d="M1.95743074,24.7618456 C0.797471784,25.4192397 0,26.6609842 0,27.9757725 L0,63.5480993 C0,64.8628874 0.869969219,66.1046322 1.95743074,66.7620259 L32.6238457,84.5116676 C33.3488201,84.9499305 34.1462918,85.0960179 35.016261,84.9499305 L2.17492304,24.6888018 L1.95743074,24.7618456 Z" fill="none"></path>
                                        <polygon fill="url(#linearGradient-11)" fill-rule="evenodd" points="31.6088816 0.511306546 31.173897 0.730437925 31.7538765 0.730437925"></polygon>
                                        <path d="M66.9876301,66.7620259 C67.857599,66.2507196 68.5100762,65.3741944 68.8000656,64.4246251 L35.1612559,6.57394133 C34.2912867,6.42785371 33.3488201,6.50089749 32.5513482,7.01220407 L2.10242561,24.6888018 L34.9437636,85.0229745 C35.3787482,84.9499305 35.8862303,84.8038431 36.3212149,84.5847116 L66.9876301,66.7620259 Z" fill="url(#linearGradient-12)" fill-rule="evenodd"></path>
                                        <polygon fill="url(#linearGradient-13)" fill-rule="evenodd" points="69.8150299 66.1776756 69.5975375 65.8124567 69.5975375 66.3237636"></polygon>
                                        <path d="M66.9876301,66.7620259 L36.3937123,84.5116676 C35.9587277,84.730799 35.5237431,84.8768865 35.016261,84.9499305 L35.5962405,86.0455872 L69.5250398,66.2507196 L69.5250398,65.8124567 L68.6550709,64.3515811 C68.5100762,65.3741944 67.857599,66.2507196 66.9876301,66.7620259 Z" fill="url(#linearGradient-14)" fill-rule="evenodd"></path>
                                        <path d="M66.9876301,66.7620259 L36.3937123,84.5116676 C35.9587277,84.730799 35.5237431,84.8768865 35.016261,84.9499305 L35.5962405,86.0455872 L69.5250398,66.2507196 L69.5250398,65.8124567 L68.6550709,64.3515811 C68.5100762,65.3741944 67.857599,66.2507196 66.9876301,66.7620259 Z" fill="url(#linearGradient-15)" fill-rule="evenodd"></path>
                                    </g>
                                </g>
                            </g>
                        </g>
                    </g>
                </g>
                <g id="React" filter="url(#filter-16)" transform="translate(326.000000, 571.000000)">
                    <path d="M110.602547,0 L298.795364,3.55271368e-15 C304.134837,2.57186839e-15 309.071788,2.83837697 311.758346,7.45274338 L407.590475,172.051654 C410.314714,176.73074 410.305912,182.51481 407.567446,187.185583 L311.76566,350.586673 C309.073315,355.178782 304.148882,358 298.825707,358 L110.572403,358 C105.188111,358 100.216861,355.11418 97.5467592,350.438588 L4.23317228,187.038015 C1.60866823,182.44227 1.60020025,176.803603 4.210889,172.199995 L97.5546198,7.60056827 C100.218613,2.90296528 105.202146,1.46703418e-14 110.602547,8.8817842e-15 Z" id="Mask" stroke="#3498DB" stroke-width="8" fill="#3498DB"></path>
                    <g id="react" transform="translate(78.000000, 65.000000)" fill="#FFFFFF" fill-rule="nonzero">
                        <path d="M210.483381,73.8236374 C207.827698,72.9095503 205.075867,72.0446761 202.24247,71.2267368 C202.708172,69.3261098 203.135596,67.4500894 203.515631,65.6059664 C209.753843,35.3248922 205.675082,10.9302478 191.747328,2.89849283 C178.392359,-4.80289661 156.551327,3.22703567 134.492936,22.4237776 C132.371761,24.2697233 130.244662,26.2241201 128.118477,28.2723861 C126.701777,26.917204 125.287358,25.6075897 123.876584,24.3549348 C100.758745,3.82852863 77.5866802,-4.82157937 63.6725966,3.23341515 C50.3303869,10.9571328 46.3792156,33.8904224 51.9945178,62.5880206 C52.5367729,65.3599011 53.1706189,68.1905639 53.8873982,71.068617 C50.6078941,71.9995641 47.4418534,72.9920277 44.4125156,74.0478303 C17.3093297,83.497195 0,98.3066828 0,113.667995 C0,129.533287 18.5815786,145.446423 46.8116526,155.095373 C49.0394553,155.856809 51.3511025,156.576778 53.7333796,157.260293 C52.9600965,160.37302 52.2875179,163.423318 51.7229345,166.398431 C46.3687351,194.597975 50.5500231,216.989464 63.8566899,224.664425 C77.6012619,232.590464 100.66852,224.443422 123.130185,204.809231 C124.905501,203.257196 126.687196,201.611293 128.472081,199.886102 C130.785552,202.113904 133.095375,204.222319 135.392897,206.199955 C157.14963,224.922338 178.637969,232.482469 191.932332,224.786092 C205.663234,216.837268 210.125675,192.78347 204.332202,163.5181 C203.88974,161.283006 203.374826,158.99961 202.796573,156.675661 C204.416503,156.196743 206.006814,155.702335 207.557482,155.188332 C236.905331,145.46465 256,129.745175 256,113.667995 C256,98.2510906 238.132466,83.3418093 210.483381,73.8236374 Z M204.118035,144.807565 C202.718197,145.270987 201.281904,145.718918 199.818271,146.153177 C196.578411,135.896354 192.205739,124.989735 186.854729,113.72131 C191.961041,102.721277 196.164656,91.9540963 199.313837,81.7638014 C201.93261,82.5215915 204.474374,83.3208483 206.923636,84.1643056 C230.613348,92.3195488 245.063763,104.377206 245.063763,113.667995 C245.063763,123.564379 229.457753,136.411268 204.118035,144.807565 Z M193.603754,165.642007 C196.165567,178.582766 196.531475,190.282717 194.834536,199.429057 C193.309843,207.64764 190.243595,213.12715 186.452366,215.321689 C178.384612,219.991462 161.131788,213.921395 142.525146,197.909832 C140.392124,196.074366 138.243609,194.114502 136.088259,192.040261 C143.301619,184.151133 150.510878,174.979732 157.54698,164.793993 C169.922699,163.695814 181.614905,161.900447 192.218042,159.449363 C192.740247,161.555956 193.204126,163.621993 193.603754,165.642007 Z M87.2761866,214.514686 C79.3938934,217.298414 73.1160375,217.378157 69.3211631,215.189998 C61.2461189,210.532528 57.8891498,192.554265 62.4682434,168.438039 C62.9927272,165.676183 63.6170041,162.839142 64.3365173,159.939216 C74.8234575,162.258154 86.4299951,163.926841 98.8353334,164.932519 C105.918826,174.899534 113.336329,184.06091 120.811247,192.08264 C119.178102,193.65928 117.551336,195.16028 115.933685,196.574699 C106.001303,205.256705 96.0479605,211.41654 87.2761866,214.514686 Z M50.3486141,144.746959 C37.8658105,140.48046 27.5570398,134.935332 20.4908634,128.884403 C14.1414664,123.446815 10.9357817,118.048415 10.9357817,113.667995 C10.9357817,104.34622 24.8334611,92.4562517 48.0123604,84.3748281 C50.8247961,83.3942121 53.7689223,82.4701001 56.8242337,81.6020363 C60.0276398,92.0224477 64.229889,102.917218 69.3011135,113.93411 C64.1642716,125.11459 59.9023288,136.182975 56.6674809,146.725506 C54.489347,146.099407 52.3791089,145.440499 50.3486141,144.746959 Z M62.7270678,60.4878073 C57.9160346,35.9004118 61.1112387,17.3525532 69.1516515,12.6982729 C77.7160924,7.74005624 96.6544653,14.8094222 116.614922,32.5329619 C117.890816,33.6657739 119.171723,34.8514442 120.456275,36.0781256 C113.018267,44.0647686 105.66866,53.1573386 98.6480514,63.0655695 C86.6081646,64.1815215 75.0831931,65.9741531 64.4868907,68.3746571 C63.8206914,65.6948233 63.2305903,63.0619242 62.7270678,60.4878073 Z M173.153901,87.7550367 C170.620796,83.3796304 168.020249,79.1076627 165.369124,74.9523483 C173.537126,75.9849113 181.362914,77.3555864 188.712066,79.0329319 C186.505679,86.1041206 183.755673,93.4974728 180.518546,101.076741 C178.196419,96.6680702 175.740322,92.2229454 173.153901,87.7550367 Z M128.122121,43.8938899 C133.166461,49.3588189 138.218091,55.4603279 143.186789,62.0803968 C138.179814,61.8439007 133.110868,61.720868 128.000001,61.720868 C122.937434,61.720868 117.905854,61.8411667 112.929865,62.0735617 C117.903575,55.515009 122.99895,49.4217021 128.122121,43.8938899 Z M82.8018984,87.830679 C80.2715265,92.2183886 77.8609975,96.6393627 75.5753239,101.068539 C72.3906004,93.5156998 69.6661103,86.0886276 67.440586,78.9171899 C74.7446255,77.2826781 82.5335049,75.9461789 90.6495601,74.9332099 C87.9610684,79.1268011 85.3391054,83.4302106 82.8018984,87.8297677 L82.8018984,87.830679 Z M90.8833221,153.182899 C82.4979621,152.247395 74.5919739,150.979704 67.289757,149.390303 C69.5508242,142.09082 72.3354636,134.505173 75.5876271,126.789657 C77.8792246,131.215644 80.2993228,135.638441 82.8451877,140.03572 L82.8456433,140.03572 C85.4388987,144.515476 88.1255676,148.90364 90.8833221,153.182899 Z M128.424691,184.213105 C123.24137,178.620587 118.071264,172.434323 113.021912,165.780078 C117.923624,165.972373 122.921029,166.0708 128.000001,166.0708 C133.217953,166.0708 138.376211,165.953235 143.45336,165.727219 C138.468257,172.501308 133.434855,178.697141 128.424691,184.213105 Z M180.622896,126.396409 C184.044571,134.195313 186.929004,141.741317 189.219234,148.9164 C181.796719,150.609693 173.782736,151.973534 165.339049,152.986959 C167.996555,148.775595 170.619884,144.430263 173.197646,139.960532 C175.805484,135.438399 178.28163,130.90943 180.622896,126.396409 Z M163.724586,134.496971 C159.722835,141.435557 155.614455,148.059271 151.443648,154.311611 C143.847063,154.854776 135.998946,155.134562 128.000001,155.134562 C120.033408,155.134562 112.284171,154.887129 104.822013,154.402745 C100.48306,148.068386 96.285368,141.425078 92.3091341,134.556664 L92.3100455,134.556664 C88.3442923,127.706935 84.6943232,120.799333 81.3870228,113.930466 C84.6934118,107.045648 88.3338117,100.130301 92.276781,93.292874 L92.2758697,93.294241 C96.2293193,86.4385872 100.390102,79.8276317 104.688954,73.5329157 C112.302398,72.9573964 120.109505,72.6571055 127.999545,72.6571055 L128.000001,72.6571055 C135.925583,72.6571055 143.742714,72.9596746 151.353879,73.5402067 C155.587114,79.7888993 159.719645,86.3784378 163.688588,93.2350031 C167.702644,100.168578 171.389978,107.037901 174.724618,113.77508 C171.400003,120.627999 167.720871,127.566587 163.724586,134.496971 Z M186.284677,12.3729198 C194.857321,17.3165548 198.191049,37.2542268 192.804953,63.3986692 C192.461372,65.0669011 192.074504,66.7661189 191.654369,68.4881206 C181.03346,66.0374921 169.500286,64.2138746 157.425315,63.0810626 C150.391035,53.0639249 143.101577,43.9572289 135.784778,36.073113 C137.751934,34.1806885 139.716356,32.3762092 141.672575,30.673346 C160.572216,14.2257007 178.236518,7.73185406 186.284677,12.3729198 Z M128.000001,90.8080696 C140.624975,90.8080696 150.859926,101.042565 150.859926,113.667995 C150.859926,126.292969 140.624975,136.527922 128.000001,136.527922 C115.375026,136.527922 105.140075,126.292969 105.140075,113.667995 C105.140075,101.042565 115.375026,90.8080696 128.000001,90.8080696 Z" id="Shape"></path>
                    </g>
                </g>
                <g id="Redux" filter="url(#filter-17)" transform="translate(327.000000, 953.000000)">
                    <path d="M110.602547,0 L298.795364,3.55271368e-15 C304.134837,2.57186839e-15 309.071788,2.83837697 311.758346,7.45274338 L407.590475,172.051654 C410.314714,176.73074 410.305912,182.51481 407.567446,187.185583 L311.76566,350.586673 C309.073315,355.178782 304.148882,358 298.825707,358 L110.572403,358 C105.188111,358 100.216861,355.11418 97.5467592,350.438588 L4.23317228,187.038015 C1.60866823,182.44227 1.60020025,176.803603 4.210889,172.199995 L97.5546198,7.60056827 C100.218613,2.90296528 105.202146,1.46703418e-14 110.602547,8.8817842e-15 Z" id="Mask" stroke="#FFFFFF" stroke-width="8" fill="#FFFFFF"></path>
                    <g id="redux" transform="translate(78.000000, 57.000000)" fill="#764ABC" fill-rule="nonzero">
                        <path d="M177.380953,169.732752 C186.828305,168.755405 193.995262,160.610839 193.669491,150.83736 C193.34372,141.063881 185.199451,133.245097 175.426328,133.245097 L174.774787,133.245097 C164.675893,133.57088 156.857395,142.041229 157.183166,152.14049 C157.508937,157.02723 159.463561,161.262404 162.395498,164.194448 C151.319292,186.021884 134.379213,201.985233 108.969093,215.342321 C91.7032429,224.464235 73.7858511,227.722061 55.8684592,225.441583 C41.208775,223.486887 29.8067984,216.971234 22.6398417,206.220408 C12.2151773,190.257058 11.237865,172.990579 20.0336756,155.724099 C26.22332,143.344359 35.9964428,134.222445 42.1860873,129.661488 C40.8830043,125.426314 38.9283797,118.259096 37.9510674,113.046574 C-9.28569288,147.253751 -4.39913147,193.514885 9.934782,215.342321 C20.6852171,231.631453 42.5118581,241.730715 66.6188943,241.730715 C73.1343096,241.730715 79.6497248,241.079149 86.16514,239.450236 C127.863797,231.30567 159.463561,206.54619 177.380953,169.732752 Z M234.716607,129.335706 C209.958029,100.341051 173.471704,84.3777023 131.773046,84.3777023 L126.560714,84.3777023 C123.628777,78.5136149 117.439133,74.6042233 110.597947,74.6042233 L109.946406,74.6042233 C99.8475119,74.9300059 92.0290137,83.4003544 92.3547844,93.499616 C92.6805552,103.273095 100.824824,111.091878 110.597947,111.091878 L111.249489,111.091878 C118.416445,110.766096 124.60609,106.205139 127.212256,100.015269 L133.07613,100.015269 C157.834707,100.015269 181.290202,107.182487 202.465302,121.19114 C218.75384,131.941967 230.481587,145.95062 236.997002,162.891317 C242.535105,176.574188 242.209334,189.931276 236.345461,201.333668 C227.223879,218.600148 211.912654,228.047844 191.714866,228.047844 C178.684036,228.047844 166.304747,224.138452 159.789332,221.206409 C156.205854,224.464235 149.690438,229.676757 145.129648,232.934584 C159.13779,239.450236 173.471704,243.033845 187.154076,243.033845 C218.428069,243.033845 241.557793,225.767366 250.353603,208.500886 C259.800955,189.605493 259.149414,157.02723 234.716607,129.335706 Z M69.2250604,175.271057 C69.5508312,185.044536 77.6951002,192.86332 87.468223,192.86332 L88.1197645,192.86332 C98.2186581,192.537537 106.037156,184.067188 105.711386,173.967927 C105.385615,164.194448 97.2413458,156.375664 87.468223,156.375664 L86.8166815,156.375664 C86.16514,156.375664 85.1878277,156.375664 84.5362862,156.701447 C71.179685,134.548228 65.6415821,110.440313 67.5962066,84.3777023 C68.8992897,64.8307442 75.4147049,47.8900472 86.8166815,33.881394 C96.2640336,21.8274365 114.507196,15.9633491 126.886485,15.6375664 C161.418186,14.9860012 176.07787,57.9893089 177.055182,75.2557885 C181.290202,76.2331364 188.457159,78.5136149 193.34372,80.142528 C189.434471,27.3657413 156.857395,0 125.583402,0 C96.2640336,0 69.2250604,21.1758712 58.4746253,52.4510041 C43.4891703,94.1511813 53.2622932,134.222445 71.5054558,165.823361 C69.876602,168.103839 68.8992897,171.687448 69.2250604,175.271057 Z" id="Shape"></path>
                    </g>
                </g>
                <g id="html5" filter="url(#filter-18)" transform="translate(658.000000, 1148.000000)">
                    <path d="M110.602547,0 L298.795364,3.55271368e-15 C304.134837,2.57186839e-15 309.071788,2.83837697 311.758346,7.45274338 L407.590475,172.051654 C410.314714,176.73074 410.305912,182.51481 407.567446,187.185583 L311.76566,350.586673 C309.073315,355.178782 304.148882,358 298.825707,358 L110.572403,358 C105.188111,358 100.216861,355.11418 97.5467592,350.438588 L4.23317228,187.038015 C1.60866823,182.44227 1.60020025,176.803603 4.210889,172.199995 L97.5546198,7.60056827 C100.218613,2.90296528 105.202146,1.46703418e-14 110.602547,8.8817842e-15 Z" id="Mask" stroke="#3498DB" stroke-width="8" fill="#3498DB"></path>
                    <g id="html-5" transform="translate(88.000000, 12.000000)" fill-rule="nonzero">
                        <polygon id="Shape" fill="#E44D26" points="237 66 215.408691 308.071883 118.354952 335 21.5684414 308.109809 0 66"></polygon>
                        <polygon id="Shape" fill="#F16529" points="119 315 197.525056 293.20423 216 86 119 86"></polygon>
                        <polygon id="Shape" fill="#EBEBEB" points="77.6878491 146.762092 120 146.762092 120 117 45 117 45.7159606 124.984664 53.0672357 207 120 207 120 177.238564 80.4212773 177.238564"></polygon>
                        <polygon id="Shape" fill="#EBEBEB" points="83.7519354 221 54 221 58.1522828 267.249773 118.863592 284 119 283.962378 119 253.316009 118.870119 253.350388 85.8620157 244.49235"></polygon>
                        <polygon id="Shape" fill="#FFFFFF" points="22 0 37.0953393 0 37.0953393 14.8600892 50.9040065 14.8600892 50.9040065 0 66 0 66 45 50.9046607 45 50.9046607 29.9313481 37.0959935 29.9313481 37.0959935 45 22.000654 45 22.000654 0"></polygon>
                        <polygon id="Shape" fill="#FFFFFF" points="87.3909606 14.922658 74 14.922658 74 0 116 0 116 14.922658 102.603108 14.922658 102.603108 45 87.3916197 45 87.3916197 14.922658"></polygon>
                        <polygon id="Shape" fill="#FFFFFF" points="122 0 138.098965 0 148.002007 15.8116563 157.895012 0 174 0 174 45 158.62426 45 158.62426 22.6955275 148.002007 38.695542 147.7364 38.695542 137.106788 22.6955275 137.106788 45 122 45"></polygon>
                        <polygon id="Shape" fill="#FFFFFF" points="181 0 195.96343 0 195.96343 30.1255721 217 30.1255721 217 45 181 45"></polygon>
                        <polygon id="Shape" fill="#FFFFFF" points="119 204.68369 156.082307 204.68369 152.586817 243.181626 119 252.117456 119 283 180.735762 266.134355 181.188696 261.119309 188.265224 182.970996 189 175 119 175"></polygon>
                        <polygon id="Shape" fill="#FFFFFF" points="119 145.929114 119 146 191.319215 146 191.919853 139.481689 193.28398 124.780208 194 117 119 117"></polygon>
                    </g>
                </g>
                <g id="CSS3" filter="url(#filter-19)" transform="translate(989.000000, 1335.000000)">
                    <path d="M110.602547,0 L298.795364,3.55271368e-15 C304.134837,2.57186839e-15 309.071788,2.83837697 311.758346,7.45274338 L407.590475,172.051654 C410.314714,176.73074 410.305912,182.51481 407.567446,187.185583 L311.76566,350.586673 C309.073315,355.178782 304.148882,358 298.825707,358 L110.572403,358 C105.188111,358 100.216861,355.11418 97.5467592,350.438588 L4.23317228,187.038015 C1.60866823,182.44227 1.60020025,176.803603 4.210889,172.199995 L97.5546198,7.60056827 C100.218613,2.90296528 105.202146,1.46703418e-14 110.602547,8.8817842e-15 Z" id="Mask" stroke="#3498DB" stroke-width="8" fill="#3498DB"></path>
                    <g id="css-3" transform="translate(88.000000, 12.000000)" fill-rule="nonzero">
                        <polygon id="Shape" fill="#264DE4" points="118.354952 335 21.5684414 308.109809 0 66 237 66 215.408691 308.071883"></polygon>
                        <polygon id="Shape" fill="#2965F1" points="197.525056 293.20423 216 86 119 86 119 315"></polygon>
                        <polygon id="Shape" fill="#EBEBEB" points="50 176 52.6571104 206 119 206 119 176"></polygon>
                        <polygon id="Shape" fill="#EBEBEB" points="45 115 47.6826852 145 119 145 119 115"></polygon>
                        <polygon id="Shape" fill="#EBEBEB" points="119 252.828961 118.870119 252.863886 85.8620157 243.865245 83.7519354 220 54 220 58.1522828 266.983897 118.863592 284 119 283.961781"></polygon>
                        <polygon id="Shape" fill="#FFFFFF" points="56 0 92 0 92 15 71.0545455 15 71.0545455 30.0000001 92 30.0000001 92 45 56 45"></polygon>
                        <polygon id="Shape" fill="#FFFFFF" points="99 0 135 0 135 13.1428572 114.054545 13.1428572 114.054545 15.7714286 135 15.7714286 135 46 99 46 99 32.2000001 119.945454 32.2000001 119.945454 29.5714285 99 29.5714285"></polygon>
                        <polygon id="Shape" fill="#FFFFFF" points="143 0 179 0 179 13.1428572 158.054545 13.1428572 158.054545 15.7714286 179 15.7714286 179 46 143 46 143 32.2000001 163.945455 32.2000001 163.945455 29.5714285 143 29.5714285"></polygon>
                        <polygon id="Shape" fill="#FFFFFF" points="187.666983 175.052176 193 115 119 115 119 144.670004 160.625895 144.670004 157.937919 175.052176 119 175.052176 119 204.721526 155.376145 204.721526 151.94722 243.200863 119 252.132376 119 283 179.560121 266.142503 180.00443 261.129879 186.946199 183.019321"></polygon>
                    </g>
                </g>
                <g id="wolkenkit" filter="url(#filter-20)" transform="translate(987.000000, 192.000000)">
                    <mask id="mask-22" fill="white">
                        <use xlink:href="#path-21"></use>
                    </mask>
                    <use id="Mask" fill="#FFFFFF" xlink:href="#path-21"></use>
                    <g id="Unknown" mask="url(#mask-22)" fill-rule="nonzero">
                        <g transform="translate(217.508928, 188.535208) rotate(-30.000000) translate(-217.508928, -188.535208) translate(23.508928, -16.464792)" id="Shape">
                            <path d="M349.14785,44.871096 C342.570791,52.0054125 338.248724,61.0171807 336.369565,70.9676748 C333.174994,69.8412037 329.60459,69.2779682 326.034187,69.2779682 C316.450473,69.2779682 307.994255,73.5961072 301.980944,80.1671882 C292.209315,69.4657134 278.115618,62.8946324 262.518593,62.8946324 C260.639434,62.8946324 258.94819,63.0823776 257.069031,63.2701227 C249.740308,42.2426636 229.821217,27.2230498 206.331722,27.2230498 C183.218059,27.2230498 163.674799,41.679428 155.970245,61.9559065 C152.96359,51.8176673 143.943624,44.3078604 133.044498,43.9323701 C133.044498,42.6181539 133.232414,41.3039377 133.232414,39.9897215 C133.232414,24.0313819 126.279524,9.76274891 115.380398,0 L0,67.4005165 L0,294.572174 L193.553437,408.158003 L387.106873,294.572174 L387.106873,67.4005165 L349.14785,44.871096 Z M289.390575,236.558916 L193.553437,292.131487 L97.7162982,236.558916 L97.7162982,125.413774 L193.553437,69.8412037 L289.390575,125.413774 L289.390575,236.558916 Z" fill="#049CDB"></path>
                            <path d="M348.020354,149.821468 C348.020354,151.136636 348.396186,152.451804 348.396186,153.766972 C337.497061,154.142734 328.477095,161.657979 325.470439,171.803559 C319.457129,155.833664 304.235936,143.43351 289.202659,138.924364 L289.202659,236.434663 L193.365521,292.047473 L97.5283822,236.434663 L97.5283822,137.233433 C97.5283822,137.045552 93.770063,136.857671 91.8909035,136.857671 C90.5754917,136.857671 89.26008,137.045552 87.9446683,137.045552 C82.3071896,113.560413 61.0726863,95.899588 35.704032,95.899588 C21.9861671,95.899588 9.3957979,101.160259 0,109.614909 L0,294.489927 L193.553437,408.158003 L387.106873,294.489927 L387.106873,97.9662803 C362.677799,104.354238 348.020354,125.021161 348.020354,149.821468 Z" fill="#66D0FD"></path>
                            <path d="M387.106873,295.399671 L387.106873,274.308898 C375.831916,259.997302 361.550303,250.581778 342.946623,250.581778 C319.457129,250.581778 299.725953,265.646616 292.397231,286.737389 C290.518071,286.549079 288.826827,286.360768 287.135584,286.360768 C271.538559,286.360768 257.444862,293.139946 247.673233,303.685332 C241.659922,297.094466 233.203704,292.763325 223.61999,292.763325 C220.049587,292.763325 216.479184,293.328256 213.096696,294.458119 C208.398797,269.412826 186.600546,250.393467 160.104396,250.393467 C158.788984,250.393467 157.473573,250.581778 156.158161,250.581778 C150.520682,226.854658 129.286179,209.341784 103.917525,209.341784 C74.0388874,209.530094 49.7977289,233.822145 49.7977289,263.575201 C49.7977289,264.893374 49.7977289,266.211547 49.9856448,267.529721 C39.0865193,267.906342 30.0665533,275.438761 27.0598979,285.607527 C22.174083,272.614104 11.2749575,262.068717 0,256.042782 L0,295.399671 L193.553437,409.32751 L387.106873,295.399671 Z" fill="#FFFFFF"></path>
                        </g>
                    </g>
                </g>
                <g id="Mask">
                    <use fill="black" fill-opacity="1" filter="url(#filter-24)" xlink:href="#path-23"></use>
                    <use stroke="#E4F0FA" stroke-width="8" fill="#E4F0FA" fill-rule="evenodd" xlink:href="#path-23"></use>
                </g>
                <path d="M1424.60255,1144 L1621.41924,1144 L1621.41924,1502 L1424.5724,1502 C1419.18811,1502 1414.21686,1499.11418 1411.54676,1494.43859 L1318.23317,1331.03802 C1315.60867,1326.44227 1315.6002,1320.8036 1318.21089,1316.2 L1411.55462,1151.60057 C1414.21861,1146.90297 1419.20215,1144 1424.60255,1144 Z" id="Mask" stroke="#E4F0FA" stroke-width="8" fill="#E4F0FA"></path>
                <path d="M110.602547,1145 L298.795364,1145 C304.134837,1145 309.071788,1147.83838 311.758346,1152.45274 L407.590475,1317.05165 C410.314714,1321.73074 410.305912,1327.51481 407.567446,1332.18558 L311.76566,1495.58667 C309.073315,1500.17878 304.148882,1503 298.825707,1503 L110.572403,1503 C105.188111,1503 100.216861,1500.11418 97.5467592,1495.43859 L4.23317228,1332.03802 C1.60866823,1327.44227 1.60020025,1321.8036 4.210889,1317.2 L97.5546198,1152.60057 C100.218613,1147.90297 105.202146,1145 110.602547,1145 Z" id="Mask" fill-opacity="0" fill="#E4F0FA"></path>
                <path d="M1422.60255,1.70084774e-15 L1619.41924,0 L1619.41924,358 L1422.5724,358 C1417.18811,358 1412.21686,355.11418 1409.54676,350.438588 L1316.23317,187.038015 C1313.60867,182.44227 1313.6002,176.803603 1316.21089,172.199995 L1409.55462,7.60056827 C1412.21861,2.90296528 1417.20215,9.92037632e-16 1422.60255,0 Z" id="Mask" stroke="#E4F0FA" stroke-width="8" fill="#E4F0FA"></path>
                <g id="Mask">
                    <use fill="black" fill-opacity="1" filter="url(#filter-26)" xlink:href="#path-25"></use>
                    <use stroke="#E4F0FA" stroke-width="8" fill="#E4F0FA" fill-rule="evenodd" xlink:href="#path-25"></use>
                </g>
                <path d="M1424.60255,380 L1621.41924,380 L1621.41924,738 L1424.5724,738 C1419.18811,738 1414.21686,735.11418 1411.54676,730.438588 L1318.23317,567.038015 C1315.60867,562.44227 1315.6002,556.803603 1318.21089,552.199995 L1411.55462,387.600568 C1414.21861,382.902965 1419.20215,380 1424.60255,380 Z" id="Mask" stroke="#FFFFFF" stroke-width="8" fill="#FFFFFF"></path>
                <g id="Jest" filter="url(#filter-27)" transform="translate(985.000000, 952.000000)">
                    <path d="M110.602547,0 L298.795364,3.55271368e-15 C304.134837,2.57186839e-15 309.071788,2.83837697 311.758346,7.45274338 L407.590475,172.051654 C410.314714,176.73074 410.305912,182.51481 407.567446,187.185583 L311.76566,350.586673 C309.073315,355.178782 304.148882,358 298.825707,358 L110.572403,358 C105.188111,358 100.216861,355.11418 97.5467592,350.438588 L4.23317228,187.038015 C1.60866823,182.44227 1.60020025,176.803603 4.210889,172.199995 L97.5546198,7.60056827 C100.218613,2.90296528 105.202146,1.46703418e-14 110.602547,8.8817842e-15 Z" id="Mask" stroke="#FFFFFF" stroke-width="8" fill="#FFFFFF"></path>
                    <g id="jest" transform="translate(78.000000, 38.000000)" fill-rule="nonzero">
                        <path d="M239.972557,139.203 C239.972557,124.669 228.190557,112.887 213.656557,112.887 C212.721557,112.887 211.799557,112.937 210.890557,113.032 L247.035557,6.427 L93.431557,6.427 L129.525557,112.94 C128.996557,112.908 128.464557,112.887 127.926557,112.887 C113.392557,112.887 101.610557,124.669 101.610557,139.203 C101.610557,150.951 109.309557,160.897 119.936557,164.281 C114.323557,174.003 107.261557,182.759 99.243557,190.323 C88.340557,200.609 75.862557,208.408 62.367557,213.214 C46.299557,204.96 38.711557,186.602 45.558557,170.507 C46.331557,168.69 47.120557,166.847 47.875557,165.013 C59.515557,162.296 68.189557,151.86 68.189557,139.392 C68.189557,124.858 56.407557,113.076 41.873557,113.076 C27.338557,113.076 15.556557,124.858 15.556557,139.392 C15.556557,148.305 19.991557,156.176 26.769557,160.937 C20.255557,175.768 10.681557,191.288 7.69855701,209.276 C4.12355701,230.835 7.68755701,253.719 26.332557,266.642 C69.756557,296.738 116.892557,247.985 166.591557,235.729 C184.602557,231.287 204.373557,232.003 220.242557,222.812 C232.159557,215.91 240.015557,204.472 242.245557,191.63 C244.447557,178.944 241.236557,166.313 233.852557,156.071 C237.671557,151.503 239.972557,145.623 239.972557,139.203 Z M154.240557,139.296 C154.240557,139.265 154.243557,139.234 154.243557,139.203 C154.243557,129.659 149.161557,121.301 141.557557,116.688 L170.285557,58.597 L199.063557,117.304 C191.996557,122.022 187.339557,130.068 187.339557,139.203 C187.339557,139.395 187.350557,139.584 187.354557,139.775 L154.240557,139.296 Z" id="Shape" fill="#C63D14"></path>
                        <path d="M246.399036,139.203 C246.399036,123.218 234.882036,109.88 219.711036,107.031 L256.000036,0 L84.4660355,0 L120.810036,107.248 C106.167036,110.507 95.1830355,123.593 95.1830355,139.203 C95.1830355,150.926 101.378036,161.223 110.663036,167.009 C106.197036,173.662 100.901036,179.923 94.8320355,185.648 C85.2080355,194.728 74.4850355,201.614 62.9250355,206.144 C51.2820355,198.83 46.3600355,185.038 51.4720355,173.022 L51.8720355,172.082 C52.1220355,171.494 52.3730355,170.904 52.6230355,170.314 C65.4110355,165.855 74.6160355,153.682 74.6160355,139.392 C74.6160355,121.337 59.9270355,106.649 41.8720355,106.649 C23.8170355,106.649 9.12903553,121.337 9.12903553,139.392 C9.12903553,148.505 12.8740355,156.757 18.9020355,162.699 C17.8090355,165.029 16.6600355,167.397 15.4790355,169.823 C9.96703553,181.144 3.72003553,193.976 1.35703553,208.225 C-3.33596447,236.524 4.23303553,259.146 22.6700355,271.924 C33.8580355,279.678 45.2190355,282.728 56.6520355,282.727 C78.1810355,282.726 99.9580355,271.911 121.258036,261.331 C136.599036,253.712 152.461036,245.833 168.130036,241.969 C173.960036,240.531 179.959036,239.666 186.310036,238.75 C198.904036,236.933 211.928036,235.055 223.464036,228.374 C236.835036,220.629 245.989036,207.637 248.577036,192.73 C250.799036,179.933 248.124036,167.117 241.602036,156.247 C244.643036,151.279 246.399036,145.443 246.399036,139.203 Z M233.545036,139.203 C233.545036,150.17 224.623036,159.093 213.655036,159.093 C202.689036,159.093 193.766036,150.17 193.766036,139.203 C193.766036,128.236 202.689036,119.314 213.655036,119.314 C224.623036,119.314 233.545036,128.236 233.545036,139.203 Z M238.069036,12.854 L206.024036,107.367 C204.635036,107.7 203.281036,108.12 201.966036,108.625 L170.310036,44.047 L138.562036,108.243 C137.190036,107.77 135.778036,107.381 134.330036,107.093 L102.395036,12.854 L238.069036,12.854 Z M127.926036,119.314 C138.893036,119.314 147.815036,128.236 147.815036,139.203 C147.815036,150.17 138.893036,159.093 127.926036,159.093 C116.960036,159.093 108.037036,150.17 108.037036,139.203 C108.037036,128.236 116.960036,119.314 127.926036,119.314 Z M41.8720355,119.503 C52.8400355,119.503 61.7620355,128.425 61.7620355,139.392 C61.7620355,150.359 52.8400355,159.282 41.8720355,159.282 C30.9060355,159.282 21.9830355,150.359 21.9830355,139.392 C21.9830355,128.425 30.9060355,119.503 41.8720355,119.503 Z M235.912036,190.531 C233.977036,201.679 227.091036,211.418 217.021036,217.25 C207.634036,222.687 196.385036,224.31 184.475036,226.027 C178.095036,226.947 171.497036,227.899 165.052036,229.489 C148.010036,233.691 131.503036,241.89 115.540036,249.819 C83.5950355,265.686 56.0060355,279.388 29.9930355,261.359 C10.9380355,248.153 11.8180355,223.718 14.0380355,210.328 C16.0950355,197.923 21.6570355,186.498 27.0360355,175.449 C27.9670355,173.537 28.8710355,171.664 29.7580355,169.803 C32.4260355,170.87 35.2630355,171.597 38.2200355,171.927 C32.7450355,189.998 41.3560355,209.646 59.4290355,218.931 L61.9020355,220.202 L64.5220355,219.269 C78.8100355,214.181 91.9750355,206.015 103.653036,194.998 C111.202036,187.877 117.689036,179.998 123.023036,171.579 C124.623036,171.82 126.260036,171.947 127.926036,171.947 C145.981036,171.947 160.670036,157.259 160.670036,139.203 C160.670036,129.493 156.417036,120.761 149.681036,114.759 L170.259036,73.147 L191.046036,115.552 C184.809036,121.518 180.912036,129.911 180.912036,139.203 C180.912036,157.259 195.600036,171.947 213.655036,171.947 C220.592036,171.947 227.027036,169.773 232.327036,166.079 C236.007036,173.612 237.378036,182.088 235.912036,190.531 Z" id="Shape" fill="#FFFFFF"></path>
                    </g>
                </g>
                <g id="nextjs" transform="translate(1319.000000, 765.000000)">
                    <mask id="mask-29" fill="white">
                        <use xlink:href="#path-28"></use>
                    </mask>
                    <use id="Mask" fill="#FFFFFF" xlink:href="#path-28"></use>
                    <g mask="url(#mask-29)" fill="#000000" fill-rule="nonzero" id="Shape">
                        <g transform="translate(40.000000, 80.000000)">
                            <path d="M77.6301396,51.9020097 L139.682556,51.9020097 L139.682556,56.8468898 L83.3182778,56.8468898 L83.3182778,94.0636199 L136.321384,94.0636199 L136.321384,99.0084996 L83.3182778,99.0084996 L83.3182778,139.868826 L140.328936,139.868826 L140.328936,144.813705 L77.6301396,144.813705 L77.6301396,51.9020097 Z M145.24142,51.9020097 L151.834488,51.9020097 L181.050835,92.7623354 L210.913561,51.9020097 L251.531736,0 L184.799835,97.0565732 L219.187216,144.813705 L212.335596,144.813705 L181.050835,101.350812 L149.636798,144.813705 L142.914454,144.813705 L177.560386,97.0565732 L145.24142,51.9020097 Z M221.643458,56.8468898 L221.643458,51.9020097 L292.357358,51.9020097 L292.357358,56.8468898 L259.779839,56.8468898 L259.779839,144.813705 L254.091701,144.813705 L254.091701,56.8468898 L221.643458,56.8468898 Z M0,51.9020097 L7.11017283,51.9020097 L105.155295,199 L64.6379347,144.813705 L5.94668998,58.9289447 L5.68813824,144.813705 L0,144.813705 L0,51.9020097 Z M291.784256,138.376566 C290.622129,138.376566 289.750533,137.473779 289.750533,136.307102 C289.750533,135.140423 290.622129,134.237635 291.784256,134.237635 C292.960218,134.237635 293.817979,135.140423 293.817979,136.307102 C293.817979,137.473779 292.960218,138.376566 291.784256,138.376566 Z M297.373535,132.932065 L300.417202,132.932065 C300.458706,134.58486 301.662339,135.695983 303.433199,135.695983 C305.411582,135.695983 306.532204,134.501526 306.532204,132.265392 L306.532204,118.098579 L309.631211,118.098579 L309.631211,132.279281 C309.631211,136.307102 307.306956,138.626569 303.460869,138.626569 C299.849973,138.626569 297.373535,136.376546 297.373535,132.932065 Z M313.684822,132.751509 L316.756158,132.751509 C317.01902,134.654307 318.87289,135.862652 321.543016,135.862652 C324.03329,135.862652 325.859489,134.570972 325.859489,132.793176 C325.859489,131.265383 324.697362,130.348706 322.054905,129.723699 L319.481625,129.098693 C315.870728,128.251461 314.224381,126.501443 314.224381,123.556969 C314.224381,119.987487 317.1297,117.612463 321.487677,117.612463 C325.541288,117.612463 328.501945,119.987487 328.681799,123.362522 L325.665802,123.362522 C325.37527,121.515281 323.770427,120.362491 321.446172,120.362491 C318.997404,120.362491 317.364893,121.543059 317.364893,123.348634 C317.364893,124.779203 318.41634,125.598656 321.017292,126.209774 L323.217033,126.751446 C327.312149,127.70979 329,129.376473 329,132.390394 C329,136.223767 326.039342,138.626569 321.307824,138.626569 C316.880672,138.626569 313.90618,136.334879 313.684822,132.751509 Z"></path>
                        </g>
                    </g>
                </g>
            </g>
        </g>
    </g>
</svg>